<svg width="32" height="28" viewBox="0 0 32 28" fill="none" xmlns="http://www.w3.org/2000/svg">
<rect width="32" height="28" fill="#1E1E1E"/>
<mask id="mask0_0_1" style="mask-type:luminance" maskUnits="userSpaceOnUse" x="-2" y="-3" width="100" height="31">
<path d="M98 28V-3H-2V28H98Z" fill="white"/>
</mask>
<g mask="url(#mask0_0_1)">
<path d="M14.3915 19.7333C14.9428 19.867 15.5242 19.9384 16.124 19.9384C16.6837 19.9383 17.2268 19.8763 17.7451 19.7593L15.2301 28L12.0937 27.2624L14.3915 19.7333Z" fill="#FF7700"/>
<path d="M23.2935 26.5159L20.158 27.2535L17.8618 19.732C18.9789 19.4601 19.9755 18.9321 20.7637 18.2253L23.2935 26.5159Z" fill="#FF7700"/>
<path d="M11.4304 18.1774C12.2024 18.8862 13.1811 19.4199 14.281 19.7053L7.40181 25.7455L5.10566 23.7296L11.4304 18.1774Z" fill="#FF7700"/>
<path d="M29.4321 21.6911L27.136 23.707L20.8268 18.1679C21.6056 17.4497 22.1736 16.553 22.4425 15.5552L29.4321 21.6911Z" fill="#FF7700"/>
<path d="M9.80308 15.5477C10.0662 16.5301 10.6186 17.415 11.3774 18.1283L1.9063 20.3561L1.06617 17.6032L9.80308 15.5477Z" fill="#FF7700"/>
<path d="M20.2226 0.7376L17.8696 8.44722L24.8141 2.34952L27.1102 4.36544L20.6898 10.0017L30.3096 7.73897L31.1498 10.4918L22.3793 12.5556L32 14.8183L31.1599 17.5718L22.451 15.523C22.5593 15.1101 22.6168 14.6798 22.6168 14.2379C22.6168 11.0897 19.7098 8.53753 16.124 8.53744C12.5379 8.53744 9.631 11.0896 9.631 14.2379C9.63101 14.6826 9.68876 15.1153 9.79841 15.5306L0.215908 13.2768L1.05604 10.5232L9.82644 12.587L2.7838 6.40392L5.07918 4.38799L11.4997 10.0249L8.92246 1.5791L12.058 0.841512L14.4437 8.65843L17.0863 0L20.2226 0.7376Z" fill="#FF7700"/>
</g>
</svg>
